<mxfile host="app.diagrams.net" agent="Mozilla/5.0 (Windows NT 10.0; Win64; x64; rv:128.0) Gecko/20100101 Firefox/128.0" version="24.8.4">
  <diagram name="Seite-1" id="A4Dn2DsGpOb_YyxiD37W">
    <mxGraphModel dx="599" dy="365" grid="1" gridSize="10" guides="1" tooltips="1" connect="1" arrows="1" fold="1" page="1" pageScale="1" pageWidth="827" pageHeight="1169" math="0" shadow="0">
      <root>
        <mxCell id="0" />
        <mxCell id="1" parent="0" />
        <mxCell id="BquZVNCWtQ4oFBv3eVwt-75" value="" style="rounded=0;whiteSpace=wrap;html=1;fontFamily=Consolas;" vertex="1" parent="1">
          <mxGeometry x="130" y="270" width="40" height="20" as="geometry" />
        </mxCell>
        <mxCell id="BquZVNCWtQ4oFBv3eVwt-2" value="&lt;font&gt;DynList&lt;/font&gt;" style="swimlane;whiteSpace=wrap;html=1;fillColor=none;fontFamily=Consolas;" vertex="1" parent="1">
          <mxGeometry x="40" y="40" width="280" height="100" as="geometry" />
        </mxCell>
        <mxCell id="BquZVNCWtQ4oFBv3eVwt-9" value="" style="endArrow=none;html=1;rounded=0;curved=0;fontFamily=Consolas;" edge="1" parent="BquZVNCWtQ4oFBv3eVwt-2">
          <mxGeometry width="50" height="50" relative="1" as="geometry">
            <mxPoint x="120" y="80" as="sourcePoint" />
            <mxPoint x="120" y="40" as="targetPoint" />
            <Array as="points">
              <mxPoint x="20" y="80" />
              <mxPoint x="20" y="40" />
            </Array>
          </mxGeometry>
        </mxCell>
        <mxCell id="BquZVNCWtQ4oFBv3eVwt-10" value="" style="endArrow=none;html=1;rounded=0;dashed=1;fontFamily=Consolas;" edge="1" parent="BquZVNCWtQ4oFBv3eVwt-2">
          <mxGeometry width="50" height="50" relative="1" as="geometry">
            <mxPoint x="120" y="40" as="sourcePoint" />
            <mxPoint x="180" y="40" as="targetPoint" />
          </mxGeometry>
        </mxCell>
        <mxCell id="BquZVNCWtQ4oFBv3eVwt-11" value="" style="endArrow=none;html=1;rounded=0;dashed=1;fontFamily=Consolas;" edge="1" parent="BquZVNCWtQ4oFBv3eVwt-2">
          <mxGeometry width="50" height="50" relative="1" as="geometry">
            <mxPoint x="120" y="80" as="sourcePoint" />
            <mxPoint x="180" y="80" as="targetPoint" />
          </mxGeometry>
        </mxCell>
        <mxCell id="BquZVNCWtQ4oFBv3eVwt-13" value="" style="endArrow=classic;startArrow=classic;html=1;rounded=0;fontFamily=Consolas;" edge="1" parent="BquZVNCWtQ4oFBv3eVwt-2">
          <mxGeometry width="50" height="50" relative="1" as="geometry">
            <mxPoint x="180" y="60" as="sourcePoint" />
            <mxPoint x="260" y="60" as="targetPoint" />
          </mxGeometry>
        </mxCell>
        <mxCell id="BquZVNCWtQ4oFBv3eVwt-14" value="Grow/Shrink" style="text;html=1;align=center;verticalAlign=middle;whiteSpace=wrap;rounded=0;fontFamily=Consolas;fontSize=10;" vertex="1" parent="BquZVNCWtQ4oFBv3eVwt-2">
          <mxGeometry x="180" y="40" width="80" height="10" as="geometry" />
        </mxCell>
        <mxCell id="BquZVNCWtQ4oFBv3eVwt-15" value="" style="endArrow=none;html=1;rounded=0;fontFamily=Consolas;" edge="1" parent="BquZVNCWtQ4oFBv3eVwt-2">
          <mxGeometry width="50" height="50" relative="1" as="geometry">
            <mxPoint x="60" y="80" as="sourcePoint" />
            <mxPoint x="60" y="40" as="targetPoint" />
          </mxGeometry>
        </mxCell>
        <mxCell id="BquZVNCWtQ4oFBv3eVwt-16" value="" style="endArrow=none;html=1;rounded=0;fontFamily=Consolas;" edge="1" parent="BquZVNCWtQ4oFBv3eVwt-2">
          <mxGeometry width="50" height="50" relative="1" as="geometry">
            <mxPoint x="99.86000000000001" y="80" as="sourcePoint" />
            <mxPoint x="99.86000000000001" y="40" as="targetPoint" />
          </mxGeometry>
        </mxCell>
        <mxCell id="BquZVNCWtQ4oFBv3eVwt-20" value="&lt;div&gt;&lt;font style=&quot;font-size: 20px;&quot;&gt;0&lt;/font&gt;&lt;/div&gt;" style="text;html=1;align=center;verticalAlign=middle;whiteSpace=wrap;rounded=0;fontFamily=Consolas;" vertex="1" parent="BquZVNCWtQ4oFBv3eVwt-2">
          <mxGeometry x="20" y="40" width="40" height="40" as="geometry" />
        </mxCell>
        <mxCell id="BquZVNCWtQ4oFBv3eVwt-21" value="&lt;div style=&quot;font-size: 20px;&quot;&gt;&lt;font style=&quot;font-size: 20px;&quot;&gt;1&lt;br&gt;&lt;/font&gt;&lt;/div&gt;" style="text;html=1;align=center;verticalAlign=middle;whiteSpace=wrap;rounded=0;fontFamily=Consolas;" vertex="1" parent="BquZVNCWtQ4oFBv3eVwt-2">
          <mxGeometry x="60" y="40" width="40" height="40" as="geometry" />
        </mxCell>
        <mxCell id="BquZVNCWtQ4oFBv3eVwt-56" style="edgeStyle=orthogonalEdgeStyle;rounded=0;orthogonalLoop=1;jettySize=auto;html=1;entryX=0;entryY=0.5;entryDx=0;entryDy=0;fontFamily=Consolas;" edge="1" parent="1" source="BquZVNCWtQ4oFBv3eVwt-42" target="BquZVNCWtQ4oFBv3eVwt-74">
          <mxGeometry relative="1" as="geometry">
            <mxPoint x="120" y="280" as="targetPoint" />
            <Array as="points" />
          </mxGeometry>
        </mxCell>
        <mxCell id="BquZVNCWtQ4oFBv3eVwt-42" value="" style="rounded=0;whiteSpace=wrap;html=1;fontFamily=Consolas;" vertex="1" parent="1">
          <mxGeometry x="60" y="240" width="40" height="80" as="geometry" />
        </mxCell>
        <mxCell id="BquZVNCWtQ4oFBv3eVwt-48" style="edgeStyle=orthogonalEdgeStyle;rounded=0;orthogonalLoop=1;jettySize=auto;html=1;exitX=0.25;exitY=0;exitDx=0;exitDy=0;entryX=0;entryY=0.25;entryDx=0;entryDy=0;fontFamily=Consolas;" edge="1" parent="1" target="BquZVNCWtQ4oFBv3eVwt-59">
          <mxGeometry relative="1" as="geometry">
            <mxPoint x="145" y="270" as="sourcePoint" />
            <Array as="points">
              <mxPoint x="145" y="245" />
            </Array>
          </mxGeometry>
        </mxCell>
        <mxCell id="BquZVNCWtQ4oFBv3eVwt-54" style="edgeStyle=orthogonalEdgeStyle;rounded=0;orthogonalLoop=1;jettySize=auto;html=1;exitX=0.75;exitY=1;exitDx=0;exitDy=0;fontFamily=Consolas;" edge="1" parent="1">
          <mxGeometry relative="1" as="geometry">
            <mxPoint x="155" y="290" as="sourcePoint" />
            <mxPoint x="170" y="305" as="targetPoint" />
            <Array as="points">
              <mxPoint x="155" y="305" />
            </Array>
          </mxGeometry>
        </mxCell>
        <mxCell id="BquZVNCWtQ4oFBv3eVwt-50" style="edgeStyle=orthogonalEdgeStyle;rounded=0;orthogonalLoop=1;jettySize=auto;html=1;exitX=1;exitY=0.25;exitDx=0;exitDy=0;entryX=0.75;entryY=0;entryDx=0;entryDy=0;dashed=1;endArrow=block;endFill=0;fontFamily=Consolas;" edge="1" parent="1" source="BquZVNCWtQ4oFBv3eVwt-44" target="BquZVNCWtQ4oFBv3eVwt-45">
          <mxGeometry relative="1" as="geometry" />
        </mxCell>
        <mxCell id="BquZVNCWtQ4oFBv3eVwt-66" style="edgeStyle=orthogonalEdgeStyle;rounded=0;orthogonalLoop=1;jettySize=auto;html=1;exitX=0;exitY=0.75;exitDx=0;exitDy=0;entryX=1;entryY=0.75;entryDx=0;entryDy=0;dashed=1;endArrow=block;endFill=0;fontFamily=Consolas;" edge="1" parent="1" source="BquZVNCWtQ4oFBv3eVwt-44" target="BquZVNCWtQ4oFBv3eVwt-61">
          <mxGeometry relative="1" as="geometry" />
        </mxCell>
        <mxCell id="BquZVNCWtQ4oFBv3eVwt-44" value="" style="rounded=0;whiteSpace=wrap;html=1;dashed=1;fontFamily=Consolas;" vertex="1" parent="1">
          <mxGeometry x="250" y="240" width="20" height="20" as="geometry" />
        </mxCell>
        <mxCell id="BquZVNCWtQ4oFBv3eVwt-51" style="edgeStyle=orthogonalEdgeStyle;rounded=0;orthogonalLoop=1;jettySize=auto;html=1;exitX=0.25;exitY=0;exitDx=0;exitDy=0;entryX=1;entryY=0.75;entryDx=0;entryDy=0;dashed=1;endArrow=block;endFill=0;fontFamily=Consolas;" edge="1" parent="1" source="BquZVNCWtQ4oFBv3eVwt-45" target="BquZVNCWtQ4oFBv3eVwt-44">
          <mxGeometry relative="1" as="geometry">
            <Array as="points">
              <mxPoint x="285" y="255" />
            </Array>
          </mxGeometry>
        </mxCell>
        <mxCell id="BquZVNCWtQ4oFBv3eVwt-52" style="edgeStyle=orthogonalEdgeStyle;rounded=0;orthogonalLoop=1;jettySize=auto;html=1;exitX=0.75;exitY=1;exitDx=0;exitDy=0;entryX=1;entryY=0.75;entryDx=0;entryDy=0;dashed=1;endArrow=block;endFill=0;fontFamily=Consolas;" edge="1" parent="1" source="BquZVNCWtQ4oFBv3eVwt-45" target="BquZVNCWtQ4oFBv3eVwt-46">
          <mxGeometry relative="1" as="geometry">
            <Array as="points">
              <mxPoint x="295" y="315" />
            </Array>
          </mxGeometry>
        </mxCell>
        <mxCell id="BquZVNCWtQ4oFBv3eVwt-45" value="" style="rounded=0;whiteSpace=wrap;html=1;dashed=1;fontFamily=Consolas;" vertex="1" parent="1">
          <mxGeometry x="280" y="270" width="20" height="20" as="geometry" />
        </mxCell>
        <mxCell id="BquZVNCWtQ4oFBv3eVwt-53" style="edgeStyle=orthogonalEdgeStyle;rounded=0;orthogonalLoop=1;jettySize=auto;html=1;exitX=1;exitY=0.25;exitDx=0;exitDy=0;entryX=0.25;entryY=1;entryDx=0;entryDy=0;dashed=1;endArrow=block;endFill=0;fontFamily=Consolas;" edge="1" parent="1" source="BquZVNCWtQ4oFBv3eVwt-46" target="BquZVNCWtQ4oFBv3eVwt-45">
          <mxGeometry relative="1" as="geometry" />
        </mxCell>
        <mxCell id="BquZVNCWtQ4oFBv3eVwt-55" style="edgeStyle=orthogonalEdgeStyle;rounded=0;orthogonalLoop=1;jettySize=auto;html=1;entryX=0.25;entryY=1;entryDx=0;entryDy=0;fontFamily=Consolas;" edge="1" parent="1">
          <mxGeometry relative="1" as="geometry">
            <mxPoint x="170" y="315" as="sourcePoint" />
            <mxPoint x="145" y="290" as="targetPoint" />
          </mxGeometry>
        </mxCell>
        <mxCell id="BquZVNCWtQ4oFBv3eVwt-70" style="edgeStyle=orthogonalEdgeStyle;rounded=0;orthogonalLoop=1;jettySize=auto;html=1;exitX=0;exitY=0.75;exitDx=0;exitDy=0;entryX=1;entryY=0.75;entryDx=0;entryDy=0;dashed=1;endArrow=block;endFill=0;fontFamily=Consolas;" edge="1" parent="1" source="BquZVNCWtQ4oFBv3eVwt-46" target="BquZVNCWtQ4oFBv3eVwt-62">
          <mxGeometry relative="1" as="geometry" />
        </mxCell>
        <mxCell id="BquZVNCWtQ4oFBv3eVwt-46" value="" style="rounded=0;whiteSpace=wrap;html=1;dashed=1;fontFamily=Consolas;" vertex="1" parent="1">
          <mxGeometry x="250" y="300" width="20" height="20" as="geometry" />
        </mxCell>
        <mxCell id="BquZVNCWtQ4oFBv3eVwt-57" value="Container" style="text;html=1;align=center;verticalAlign=middle;whiteSpace=wrap;rounded=0;rotation=90;fontFamily=Consolas;" vertex="1" parent="1">
          <mxGeometry x="40" y="260" width="80" height="40" as="geometry" />
        </mxCell>
        <mxCell id="BquZVNCWtQ4oFBv3eVwt-58" value="&lt;div&gt;LinkList&lt;/div&gt;" style="swimlane;whiteSpace=wrap;html=1;fontFamily=Consolas;" vertex="1" parent="1">
          <mxGeometry x="40" y="200" width="280" height="140" as="geometry" />
        </mxCell>
        <mxCell id="BquZVNCWtQ4oFBv3eVwt-59" value="" style="rounded=0;whiteSpace=wrap;html=1;fontFamily=Consolas;" vertex="1" parent="BquZVNCWtQ4oFBv3eVwt-58">
          <mxGeometry x="130" y="40" width="20" height="20" as="geometry" />
        </mxCell>
        <mxCell id="BquZVNCWtQ4oFBv3eVwt-74" value="&lt;font style=&quot;font-size: 8px;&quot;&gt;Sentinel&lt;/font&gt;" style="text;html=1;align=center;verticalAlign=middle;whiteSpace=wrap;rounded=0;fontSize=8;fontFamily=Consolas;" vertex="1" parent="BquZVNCWtQ4oFBv3eVwt-58">
          <mxGeometry x="90" y="70" width="40" height="20" as="geometry" />
        </mxCell>
        <mxCell id="BquZVNCWtQ4oFBv3eVwt-49" style="edgeStyle=orthogonalEdgeStyle;rounded=0;orthogonalLoop=1;jettySize=auto;html=1;entryX=0.75;entryY=0;entryDx=0;entryDy=0;exitX=0;exitY=0.75;exitDx=0;exitDy=0;fontFamily=Consolas;" edge="1" parent="1" source="BquZVNCWtQ4oFBv3eVwt-59">
          <mxGeometry relative="1" as="geometry">
            <mxPoint x="220" y="260" as="sourcePoint" />
            <mxPoint x="155" y="270" as="targetPoint" />
            <Array as="points">
              <mxPoint x="155" y="255" />
            </Array>
          </mxGeometry>
        </mxCell>
        <mxCell id="BquZVNCWtQ4oFBv3eVwt-67" style="edgeStyle=orthogonalEdgeStyle;rounded=0;orthogonalLoop=1;jettySize=auto;html=1;exitX=1;exitY=0.25;exitDx=0;exitDy=0;entryX=0;entryY=0.25;entryDx=0;entryDy=0;dashed=1;endArrow=block;endFill=0;fontFamily=Consolas;" edge="1" parent="1" source="BquZVNCWtQ4oFBv3eVwt-60" target="BquZVNCWtQ4oFBv3eVwt-62">
          <mxGeometry relative="1" as="geometry" />
        </mxCell>
        <mxCell id="BquZVNCWtQ4oFBv3eVwt-60" value="" style="rounded=0;whiteSpace=wrap;html=1;fontFamily=Consolas;" vertex="1" parent="1">
          <mxGeometry x="170" y="300" width="20" height="20" as="geometry" />
        </mxCell>
        <mxCell id="BquZVNCWtQ4oFBv3eVwt-64" style="edgeStyle=orthogonalEdgeStyle;rounded=0;orthogonalLoop=1;jettySize=auto;html=1;exitX=0;exitY=0.75;exitDx=0;exitDy=0;entryX=1;entryY=0.75;entryDx=0;entryDy=0;dashed=1;endArrow=block;endFill=0;fontFamily=Consolas;" edge="1" parent="1" source="BquZVNCWtQ4oFBv3eVwt-61" target="BquZVNCWtQ4oFBv3eVwt-59">
          <mxGeometry relative="1" as="geometry" />
        </mxCell>
        <mxCell id="BquZVNCWtQ4oFBv3eVwt-65" style="edgeStyle=orthogonalEdgeStyle;rounded=0;orthogonalLoop=1;jettySize=auto;html=1;exitX=1;exitY=0.25;exitDx=0;exitDy=0;dashed=1;endArrow=block;endFill=0;fontFamily=Consolas;" edge="1" parent="1" source="BquZVNCWtQ4oFBv3eVwt-61">
          <mxGeometry relative="1" as="geometry">
            <mxPoint x="250" y="244.9871382636656" as="targetPoint" />
          </mxGeometry>
        </mxCell>
        <mxCell id="BquZVNCWtQ4oFBv3eVwt-61" value="" style="rounded=0;whiteSpace=wrap;html=1;dashed=1;fontFamily=Consolas;" vertex="1" parent="1">
          <mxGeometry x="210" y="240" width="20" height="20" as="geometry" />
        </mxCell>
        <mxCell id="BquZVNCWtQ4oFBv3eVwt-68" style="edgeStyle=orthogonalEdgeStyle;rounded=0;orthogonalLoop=1;jettySize=auto;html=1;exitX=0;exitY=0.75;exitDx=0;exitDy=0;entryX=1;entryY=0.75;entryDx=0;entryDy=0;dashed=1;endArrow=block;endFill=0;fontFamily=Consolas;" edge="1" parent="1" source="BquZVNCWtQ4oFBv3eVwt-62" target="BquZVNCWtQ4oFBv3eVwt-60">
          <mxGeometry relative="1" as="geometry" />
        </mxCell>
        <mxCell id="BquZVNCWtQ4oFBv3eVwt-69" style="edgeStyle=orthogonalEdgeStyle;rounded=0;orthogonalLoop=1;jettySize=auto;html=1;exitX=1;exitY=0.25;exitDx=0;exitDy=0;dashed=1;endArrow=block;endFill=0;fontFamily=Consolas;" edge="1" parent="1" source="BquZVNCWtQ4oFBv3eVwt-62">
          <mxGeometry relative="1" as="geometry">
            <mxPoint x="250" y="304.98713826366554" as="targetPoint" />
          </mxGeometry>
        </mxCell>
        <mxCell id="BquZVNCWtQ4oFBv3eVwt-62" value="" style="rounded=0;whiteSpace=wrap;html=1;dashed=1;fontFamily=Consolas;" vertex="1" parent="1">
          <mxGeometry x="210" y="300" width="20" height="20" as="geometry" />
        </mxCell>
        <mxCell id="BquZVNCWtQ4oFBv3eVwt-63" style="edgeStyle=orthogonalEdgeStyle;rounded=0;orthogonalLoop=1;jettySize=auto;html=1;exitX=1;exitY=0.25;exitDx=0;exitDy=0;entryX=0;entryY=0.25;entryDx=0;entryDy=0;dashed=1;endArrow=block;endFill=0;fontFamily=Consolas;" edge="1" parent="1" source="BquZVNCWtQ4oFBv3eVwt-59" target="BquZVNCWtQ4oFBv3eVwt-61">
          <mxGeometry relative="1" as="geometry" />
        </mxCell>
        <mxCell id="BquZVNCWtQ4oFBv3eVwt-76" value="" style="endArrow=none;html=1;rounded=0;curved=0;fontFamily=Consolas;" edge="1" parent="1">
          <mxGeometry width="50" height="50" relative="1" as="geometry">
            <mxPoint x="150" y="480" as="sourcePoint" />
            <mxPoint x="150" y="440" as="targetPoint" />
            <Array as="points">
              <mxPoint x="60" y="480" />
              <mxPoint x="60" y="440" />
            </Array>
          </mxGeometry>
        </mxCell>
        <mxCell id="BquZVNCWtQ4oFBv3eVwt-77" value="" style="endArrow=none;html=1;rounded=0;dashed=1;fontFamily=Consolas;" edge="1" parent="1">
          <mxGeometry width="50" height="50" relative="1" as="geometry">
            <mxPoint x="150" y="440" as="sourcePoint" />
            <mxPoint x="210" y="440" as="targetPoint" />
          </mxGeometry>
        </mxCell>
        <mxCell id="BquZVNCWtQ4oFBv3eVwt-78" value="" style="endArrow=none;html=1;rounded=0;dashed=1;fontFamily=Consolas;" edge="1" parent="1">
          <mxGeometry width="50" height="50" relative="1" as="geometry">
            <mxPoint x="150" y="480" as="sourcePoint" />
            <mxPoint x="210" y="480" as="targetPoint" />
          </mxGeometry>
        </mxCell>
        <mxCell id="BquZVNCWtQ4oFBv3eVwt-79" value="" style="endArrow=none;html=1;rounded=0;fontFamily=Consolas;" edge="1" parent="1">
          <mxGeometry width="50" height="50" relative="1" as="geometry">
            <mxPoint x="100" y="480" as="sourcePoint" />
            <mxPoint x="100" y="440" as="targetPoint" />
          </mxGeometry>
        </mxCell>
        <mxCell id="BquZVNCWtQ4oFBv3eVwt-80" value="" style="endArrow=none;html=1;rounded=0;fontFamily=Consolas;" edge="1" parent="1">
          <mxGeometry width="50" height="50" relative="1" as="geometry">
            <mxPoint x="139.86" y="480" as="sourcePoint" />
            <mxPoint x="139.86" y="440" as="targetPoint" />
          </mxGeometry>
        </mxCell>
        <mxCell id="BquZVNCWtQ4oFBv3eVwt-81" value="&lt;div&gt;&lt;font style=&quot;font-size: 20px;&quot;&gt;0&lt;/font&gt;&lt;/div&gt;" style="text;html=1;align=center;verticalAlign=middle;whiteSpace=wrap;rounded=0;fontFamily=Consolas;" vertex="1" parent="1">
          <mxGeometry x="60" y="440" width="40" height="40" as="geometry" />
        </mxCell>
        <mxCell id="BquZVNCWtQ4oFBv3eVwt-82" value="&lt;div style=&quot;font-size: 20px;&quot;&gt;&lt;font style=&quot;font-size: 20px;&quot;&gt;1&lt;br&gt;&lt;/font&gt;&lt;/div&gt;" style="text;html=1;align=center;verticalAlign=middle;whiteSpace=wrap;rounded=0;fontFamily=Consolas;" vertex="1" parent="1">
          <mxGeometry x="100" y="440" width="40" height="40" as="geometry" />
        </mxCell>
        <mxCell id="BquZVNCWtQ4oFBv3eVwt-89" value="" style="endArrow=none;html=1;rounded=0;curved=0;fontFamily=Consolas;" edge="1" parent="1">
          <mxGeometry width="50" height="50" relative="1" as="geometry">
            <mxPoint x="210" y="480" as="sourcePoint" />
            <mxPoint x="210" y="440" as="targetPoint" />
            <Array as="points">
              <mxPoint x="300" y="480" />
              <mxPoint x="300" y="440" />
            </Array>
          </mxGeometry>
        </mxCell>
        <mxCell id="BquZVNCWtQ4oFBv3eVwt-90" value="" style="endArrow=none;html=1;rounded=0;fontFamily=Consolas;" edge="1" parent="1">
          <mxGeometry width="50" height="50" relative="1" as="geometry">
            <mxPoint x="259.86" y="480" as="sourcePoint" />
            <mxPoint x="259.86" y="440" as="targetPoint" />
          </mxGeometry>
        </mxCell>
        <mxCell id="BquZVNCWtQ4oFBv3eVwt-91" value="" style="endArrow=none;html=1;rounded=0;fontFamily=Consolas;" edge="1" parent="1">
          <mxGeometry width="50" height="50" relative="1" as="geometry">
            <mxPoint x="219.86" y="480" as="sourcePoint" />
            <mxPoint x="219.86" y="440" as="targetPoint" />
          </mxGeometry>
        </mxCell>
        <mxCell id="BquZVNCWtQ4oFBv3eVwt-92" value="n" style="text;html=1;align=center;verticalAlign=middle;whiteSpace=wrap;rounded=0;fontFamily=Consolas;" vertex="1" parent="1">
          <mxGeometry x="259.86" y="440" width="40" height="40" as="geometry" />
        </mxCell>
        <mxCell id="BquZVNCWtQ4oFBv3eVwt-93" value="&lt;div&gt;n-1&lt;/div&gt;" style="text;html=1;align=center;verticalAlign=middle;whiteSpace=wrap;rounded=0;fontFamily=Consolas;" vertex="1" parent="1">
          <mxGeometry x="219.86" y="440" width="39.86" height="40" as="geometry" />
        </mxCell>
        <mxCell id="BquZVNCWtQ4oFBv3eVwt-95" value="&lt;font&gt;Ringbuf&lt;/font&gt;" style="swimlane;whiteSpace=wrap;html=1;fontFamily=Consolas;" vertex="1" parent="1">
          <mxGeometry x="40" y="400" width="280" height="140" as="geometry" />
        </mxCell>
        <mxCell id="BquZVNCWtQ4oFBv3eVwt-97" value="" style="endArrow=classic;html=1;rounded=0;" edge="1" parent="BquZVNCWtQ4oFBv3eVwt-95">
          <mxGeometry width="50" height="50" relative="1" as="geometry">
            <mxPoint x="120" y="100" as="sourcePoint" />
            <mxPoint x="120" y="80" as="targetPoint" />
          </mxGeometry>
        </mxCell>
        <mxCell id="BquZVNCWtQ4oFBv3eVwt-96" value="" style="endArrow=classic;html=1;rounded=0;" edge="1" parent="BquZVNCWtQ4oFBv3eVwt-95">
          <mxGeometry width="50" height="50" relative="1" as="geometry">
            <mxPoint x="160" y="100" as="sourcePoint" />
            <mxPoint x="160" y="80" as="targetPoint" />
          </mxGeometry>
        </mxCell>
        <mxCell id="BquZVNCWtQ4oFBv3eVwt-98" value="Tail" style="text;html=1;align=center;verticalAlign=middle;whiteSpace=wrap;rounded=0;fontFamily=Consolas;fontSize=12;fontColor=default;labelBackgroundColor=none;" vertex="1" parent="BquZVNCWtQ4oFBv3eVwt-95">
          <mxGeometry x="100" y="100" width="40" height="20" as="geometry" />
        </mxCell>
        <mxCell id="BquZVNCWtQ4oFBv3eVwt-103" value="Head" style="text;html=1;align=center;verticalAlign=middle;whiteSpace=wrap;rounded=0;fontFamily=Consolas;fontSize=12;fontColor=default;labelBackgroundColor=none;" vertex="1" parent="BquZVNCWtQ4oFBv3eVwt-95">
          <mxGeometry x="140" y="100" width="40" height="20" as="geometry" />
        </mxCell>
      </root>
    </mxGraphModel>
  </diagram>
</mxfile>
